<svg xmlns="http://www.w3.org/2000/svg" viewBox="0 0 500 500">
  <path fill="#e9e9e9" d="M484.6 258.685c-12.002-6.546-21.845-15.188-30.069-25.091-22.214.216-88.477 55.853-113.608 79.295-11.297 10.542-44.545 40.025-61.297 50.758-23.822 15.261-73.561 7.312-103.889 12.045-14.248 2.226-68.826 20.646-68.826 20.646 52.48 26.674 73.666 13.319 109.369 9.465 11.94-1.29 24.629-4.517 44.847 5.807 10.466 5.345 30.517 24.521 35.921 30.328C320.059 466.672 371.897 497 371.897 497 368.454 322.351 484.6 258.685 484.6 258.685z"/>
  <path fill="#a3a2a2" d="M472.019 250.506c-6.554-5.008-12.339-10.712-17.487-16.912-26.604 8.421-88.477 55.853-113.608 79.295-9.786 9.131-36.026 32.457-53.762 45.519 34.92-28.617 103.935-77.676 143.344-94.777 17.099-7.421 41.513-13.125 41.513-13.125zM231.423 373.582c-76.977-8.286-124.511 22.757-124.511 22.757 6.519 3.314 12.552 6.009 18.194 8.181 12.594-8.429 50.68-30.42 113.869-30.938h-7.552z"/>
  <path fill="#c39c67" d="M404.588 110.707C362.218-5.871 336.623 3.163 336.623 3.163c-14.627 6.886-21.788 66.109-30.115 87.756-13.977 36.35-33.455 54.542-47.316 67.107-9.252 8.383-92.745 80.368-124.75 107.542-11.169 9.481-76.571 37.855-76.571 37.855-40.437 18.925-42.157 38.212-42.157 38.212-4.301 21.866 36.451 38.223 49.9 49.544 9.873 8.31 41.296 5.159 41.296 5.159s54.578-18.42 68.826-20.646c30.328-4.733 80.066 3.216 103.889-12.045 16.753-10.734 50-40.217 61.297-50.758 25.131-23.442 97.375-79.079 119.587-79.295-30.682-36.957-44.591-91.717-55.921-122.887zM155.091 281.05s42.373-62.803 67.644-20.647l-67.644 20.647z"/>
  <path fill="#e9e9e9" d="M404.588 110.707C362.218-5.871 336.623 3.163 336.623 3.163c-14.627 6.886-21.788 66.109-30.115 87.756-13.977 36.35-33.455 54.542-47.316 67.107-9.252 8.383-92.745 80.368-124.75 107.542-11.169 9.481-76.571 37.855-76.571 37.855-40.437 18.925-42.157 38.212-42.157 38.212-4.301 21.866 36.451 38.223 49.9 49.544 9.873 8.31 41.296 5.159 41.296 5.159s54.578-18.42 68.826-20.646c30.328-4.733 80.066 3.216 103.889-12.045 16.753-10.734 50-40.217 61.297-50.758 25.131-23.442 97.375-79.079 119.587-79.295-30.682-36.957-44.591-91.717-55.921-122.887zM155.091 281.05s42.373-62.803 67.644-20.647l-67.644 20.647z"/>
  <path fill="#a3a2a2" d="M155.091 281.05s43.284-81.086 67.644-20.647c0 0-20.485-43.716-67.644 20.647zM15.716 341.635s27.961-15.558 29.252 0c1.29 15.558-14.626 25.935-14.626 25.935s-16.454-10.52-14.626-25.935z"/>
</svg>
